<svg version="1.1" xmlns="http://www.w3.org/2000/svg" xmlns:xlink="http://www.w3.org/1999/xlink" width="233.5" height="106.25449" viewBox="0,0,233.5,106.25449"><defs><radialGradient cx="340.84967" cy="190.96737" r="15.91351" gradientUnits="userSpaceOnUse" id="color-1"><stop offset="0" stop-color="#995900"/><stop offset="1" stop-color="#663b00"/></radialGradient><radialGradient cx="332.64204" cy="179.2279" r="8.0792" gradientUnits="userSpaceOnUse" id="color-2"><stop offset="0" stop-color="#006622"/><stop offset="1" stop-color="#009933"/></radialGradient><radialGradient cx="344.70812" cy="154.53152" r="17.12936" gradientUnits="userSpaceOnUse" id="color-3"><stop offset="0" stop-color="#006622"/><stop offset="1" stop-color="#009933"/></radialGradient><radialGradient cx="349.05613" cy="176.53431" r="11.31085" gradientUnits="userSpaceOnUse" id="color-4"><stop offset="0" stop-color="#006622"/><stop offset="1" stop-color="#009933"/></radialGradient><radialGradient cx="331.92125" cy="174.64443" r="11.42756" gradientUnits="userSpaceOnUse" id="color-5"><stop offset="0" stop-color="#006622"/><stop offset="1" stop-color="#009933"/></radialGradient><radialGradient cx="339.02528" cy="177.55193" r="11.31085" gradientUnits="userSpaceOnUse" id="color-6"><stop offset="0" stop-color="#006622"/><stop offset="1" stop-color="#009933"/></radialGradient><radialGradient cx="338.15303" cy="169.41094" r="11.31085" gradientUnits="userSpaceOnUse" id="color-7"><stop offset="0" stop-color="#006622"/><stop offset="1" stop-color="#009933"/></radialGradient><radialGradient cx="348.03851" cy="172.31844" r="11.31085" gradientUnits="userSpaceOnUse" id="color-8"><stop offset="0" stop-color="#006622"/><stop offset="1" stop-color="#009933"/></radialGradient><radialGradient cx="329.86082" cy="168.82962" r="11.31647" gradientUnits="userSpaceOnUse" id="color-9"><stop offset="0" stop-color="#006622"/><stop offset="1" stop-color="#009933"/></radialGradient><radialGradient cx="329.99742" cy="160.29411" r="15.81834" gradientUnits="userSpaceOnUse" id="color-10"><stop offset="0" stop-color="#006622"/><stop offset="1" stop-color="#009933"/></radialGradient><radialGradient cx="347.75166" cy="161.896" r="14.29444" gradientUnits="userSpaceOnUse" id="color-11"><stop offset="0" stop-color="#006622"/><stop offset="1" stop-color="#009933"/></radialGradient><radialGradient cx="352.43075" cy="167.2157" r="12.34421" gradientUnits="userSpaceOnUse" id="color-12"><stop offset="0" stop-color="#006622"/><stop offset="1" stop-color="#009933"/></radialGradient><radialGradient cx="338.57653" cy="163.29058" r="12.34421" gradientUnits="userSpaceOnUse" id="color-13"><stop offset="0" stop-color="#006622"/><stop offset="1" stop-color="#009933"/></radialGradient><radialGradient cx="346.15983" cy="180.42956" r="6.54332" gradientUnits="userSpaceOnUse" id="color-14"><stop offset="0" stop-color="#006622"/><stop offset="1" stop-color="#009933"/></radialGradient><radialGradient cx="331.53513" cy="155.05667" r="7.12819" gradientUnits="userSpaceOnUse" id="color-15"><stop offset="0" stop-color="#006622"/><stop offset="1" stop-color="#009933"/></radialGradient></defs><g transform="translate(-147.75,-126.87281)"><g data-paper-data="{&quot;isPaintingLayer&quot;:true}" fill-rule="nonzero" stroke-linejoin="miter" stroke-miterlimit="10" stroke-dasharray="" stroke-dashoffset="0" style="mix-blend-mode: normal"><path d="M150.5,230.3773v-100.75449h179v100.75449z" fill="#ff0000" stroke="#000000" stroke-width="5.5" stroke-linecap="butt"/><text transform="translate(167.16667,166.76657) scale(0.43612,0.43612)" font-size="40" xml:space="preserve" fill="#000000" fill-rule="nonzero" stroke="none" stroke-width="1" stroke-linecap="butt" stroke-linejoin="miter" stroke-miterlimit="10" stroke-dasharray="" stroke-dashoffset="0" font-family="Sans Serif" font-weight="normal" text-anchor="start" style="mix-blend-mode: normal"><tspan x="0" dy="0">Gold Apple Tree</tspan></text><path d="M300.5,178.00005c0,-21.53911 17.46089,-39 39,-39c21.53911,0 39,17.46089 39,39c0,21.53911 -17.46089,39 -39,39c-21.53911,0 -39,-17.46089 -39,-39z" fill="#ffffff" stroke="#000000" stroke-width="5.5" stroke-linecap="butt"/><text transform="translate(331,191.35827) scale(1.05928,1.05928)" font-size="40" xml:space="preserve" fill="#000000" fill-rule="nonzero" stroke="none" stroke-width="1" stroke-linecap="butt" stroke-linejoin="miter" stroke-miterlimit="10" stroke-dasharray="" stroke-dashoffset="0" font-family="Sans Serif" font-weight="normal" text-anchor="start" style="mix-blend-mode: normal"><tspan x="0" dy="0">?</tspan></text><text transform="translate(183.5,193.00004) scale(0.5,0.5)" font-size="40" xml:space="preserve" fill="#000000" fill-rule="nonzero" stroke="none" stroke-width="1" stroke-linecap="butt" stroke-linejoin="miter" stroke-miterlimit="10" stroke-dasharray="" stroke-dashoffset="0" font-family="Sans Serif" font-weight="normal" text-anchor="start" style="mix-blend-mode: normal"><tspan x="0" dy="0">+50 per sec</tspan></text><path d="M336.59961,171.02263h8.24612v39.25357h-8.24612z" fill="url(#color-1)" stroke="#995900" stroke-width="1.16275" stroke-linecap="butt"/><path d="M331.94311,177.64014c1.79125,-0.13386 3.93178,0.27926 5.28522,0.73033c1.35344,0.45121 2.1912,1.07426 2.1912,1.7618c0,0.68754 -1.11584,1.59174 -2.1912,1.7618c-0.96177,0.15011 -1.8419,-0.78049 -2.79306,-0.69163c-0.47953,0.03943 -0.28392,0.72051 -0.72687,0.93819c-0.449,0.29116 -1.12709,0.49669 -1.76529,0.48378c-1.32247,-0.02698 -2.54572,-0.08269 -3.42669,-0.58638c-1.16922,-0.56455 -2.18394,-1.48736 -2.28445,-2.38952c-0.03344,-0.41193 1.03175,-0.41252 1.55757,-0.62302c1.32998,-0.52835 2.58415,-1.26866 4.15356,-1.38533z" fill="url(#color-2)" stroke="none" stroke-width="0.61823" stroke-linecap="round"/><path d="M340.39503,150.4298c1.24787,-0.10734 0.96677,1.65297 2.3321,1.78485c1.96994,0.1866 4.1214,-1.64587 5.72419,-1.06333c2.62803,0.95878 3.18647,3.32213 4.96054,4.67915c1.39757,1.05571 4.47379,1.85524 4.47379,3.04261c0,1.18739 -2.27823,2.74895 -4.47379,3.04264c-1.96361,0.25923 -3.76058,-1.34789 -5.70256,-1.19446c-0.97907,0.06809 -0.57964,1.24432 -1.48407,1.62029c-0.9167,0.50279 -2.30111,0.85774 -3.6041,0.83547c-2.70013,-0.04658 -4.98897,-0.23243 -6.99625,-1.01268c-1.65154,-0.6418 -2.63908,-1.69702 -2.86211,-2.77224c-0.44226,-2.12866 -1.07827,-4.5361 0.42403,-6.45589c1.37423,-1.45828 4.59079,-2.28108 7.20823,-2.50641z" fill="url(#color-3)" stroke="none" stroke-width="1.20104" stroke-linecap="round"/><path d="M348.07765,174.31141c2.50771,-0.18739 5.50447,0.39097 7.39928,1.02248c1.89481,0.63171 3.0677,1.50396 3.0677,2.46652c0,0.96256 -1.5622,2.22845 -3.0677,2.46652c-1.34646,0.21015 -2.57866,-1.09267 -3.91029,-0.96828c-0.67134,0.05518 -0.39745,1.00873 -1.01762,1.31349c-0.6286,0.4076 -1.5779,0.69533 -2.47137,0.67727c-1.85149,-0.03777 -3.56401,-0.11575 -4.79737,-0.82093c-1.63692,-0.79037 -3.05752,-2.08232 -3.19824,-3.34533c-0.04681,-0.5767 1.44444,-0.57754 2.18062,-0.87225c1.86196,-0.73967 3.6178,-1.7761 5.81499,-1.93947z" fill="url(#color-4)" stroke="none" stroke-width="0.86553" stroke-linecap="round"/><path d="M331.0688,172.42154c2.50771,-0.18739 5.50447,0.39097 7.39928,1.02248c1.89481,0.63171 3.0677,1.50396 3.0677,2.46652c0,0.96256 -1.5622,2.22845 -3.0677,2.46652c-1.34646,0.21015 -2.57866,-1.09267 -3.91029,-0.96828c-0.67134,0.05518 -0.39745,1.00873 -1.01762,1.31349c-0.6286,0.4076 -1.5779,0.69533 -2.47137,0.67727c-1.85149,-0.03777 -3.3003,-0.3528 -4.79737,-0.82093c-1.29151,-0.40967 -3.19243,-0.53896 -3.41631,-1.38533c-0.25586,-1.14256 1.27726,-2.22269 2.39868,-2.83225c1.7035,-0.91226 3.6178,-1.7761 5.81499,-1.93947z" fill="url(#color-5)" stroke="none" stroke-width="0.86553" stroke-linecap="round"/><path d="M338.04679,175.32903c2.50771,-0.18739 5.50447,0.39097 7.39928,1.02248c1.89481,0.63171 3.0677,1.50396 3.0677,2.46652c0,0.96256 -1.5622,2.22845 -3.0677,2.46652c-1.34646,0.21015 -2.57866,-1.09267 -3.91029,-0.96828c-0.67134,0.05518 -0.39745,1.00873 -1.01762,1.31349c-0.6286,0.4076 -1.5779,0.69533 -2.47137,0.67727c-1.85149,-0.03777 -3.56401,-0.11575 -4.79737,-0.82093c-1.63692,-0.79037 -3.05752,-2.08232 -3.19824,-3.34533c-0.04681,-0.5767 1.44444,-0.57754 2.18062,-0.87225c1.86196,-0.73967 3.6178,-1.7761 5.81499,-1.93947z" fill="url(#color-6)" stroke="none" stroke-width="0.86553" stroke-linecap="round"/><path d="M337.17454,167.18805c2.50771,-0.18739 5.50447,0.39097 7.39928,1.02248c1.89481,0.63171 3.0677,1.50396 3.0677,2.46652c0,0.96256 -1.5622,2.22845 -3.0677,2.46652c-1.34646,0.21015 -2.57866,-1.09267 -3.91029,-0.96828c-0.67134,0.05518 -0.39745,1.00873 -1.01762,1.31349c-0.6286,0.4076 -1.5779,0.69533 -2.47137,0.67727c-1.85149,-0.03777 -3.56401,-0.11575 -4.79737,-0.82093c-1.63692,-0.79037 -3.05752,-2.08232 -3.19824,-3.34533c-0.04681,-0.5767 1.44444,-0.57754 2.18062,-0.87225c1.86196,-0.73967 3.6178,-1.7761 5.81499,-1.93947z" fill="url(#color-7)" stroke="none" stroke-width="0.86553" stroke-linecap="round"/><path d="M347.06002,170.09554c2.50771,-0.18739 5.50447,0.39097 7.39928,1.02248c1.89481,0.63171 3.0677,1.50396 3.0677,2.46652c0,0.96256 -1.5622,2.22845 -3.0677,2.46652c-1.34646,0.21015 -2.57866,-1.09267 -3.91029,-0.96828c-0.67134,0.05518 -0.39745,1.00873 -1.01762,1.31349c-0.6286,0.4076 -1.5779,0.69533 -2.47137,0.67727c-1.85149,-0.03777 -3.56401,-0.11575 -4.79737,-0.82093c-1.63692,-0.79037 -3.05752,-2.08232 -3.19824,-3.34533c-0.04681,-0.5767 1.44444,-0.57754 2.18062,-0.87225c1.86196,-0.73967 3.6178,-1.7761 5.81499,-1.93947z" fill="url(#color-8)" stroke="none" stroke-width="0.86553" stroke-linecap="round"/><path d="M328.88818,166.60655c2.50771,-0.18739 5.50447,0.39097 7.39928,1.02248c1.89481,0.63171 3.0677,1.50396 3.0677,2.46652c0,0.96256 -1.5622,2.22845 -3.0677,2.46652c-1.34646,0.21015 -2.57866,-1.09267 -3.91029,-0.96828c-0.67134,0.05518 -0.39745,1.00873 -1.01762,1.31349c-0.6286,0.4076 -1.59331,0.64875 -2.47137,0.67727c-0.81148,0.01931 -1.59011,-0.17465 -2.25331,-0.46177c-0.97983,-0.42258 -1.54301,-1.28354 -2.326,-1.88816c-1.13887,-0.6352 -3.12265,-0.89464 -3.41631,-1.81634c-0.17009,-0.52704 1.44444,-0.57754 2.18062,-0.87225c1.86196,-0.73967 3.6178,-1.7761 5.81499,-1.93947z" fill="url(#color-9)" stroke="none" stroke-width="0.86553" stroke-linecap="round"/><path d="M327.05774,157.71046c0.35672,-0.02977 0.48523,-0.20335 0.93976,-0.31136c1.70885,-0.4067 3.72837,-1.76023 5.17831,-1.13721c2.3774,1.02539 2.88258,3.55293 4.48746,5.00421c1.2643,1.12907 4.04715,1.98413 4.04715,3.25401c0,1.26985 -2.06098,2.93991 -4.04715,3.25401c-1.77633,0.27726 -3.40194,-1.44154 -5.15871,-1.27747c-0.88568,0.07283 -0.52437,1.33079 -1.34254,1.73287c-0.8293,0.53774 -2.08168,0.91734 -3.26041,0.8935c-2.44262,-0.04981 -4.51319,-0.24853 -6.32904,-1.08304c-1.49405,-0.68637 -2.98768,-1.84199 -2.58915,-2.96483c0.62752,-1.74098 3.76212,-2.40598 4.60294,-4.02078c0.4411,-0.8437 -2.16684,-1.75427 -1.45761,-2.46393c0.91868,-0.91868 3.26503,-0.49957 4.92899,-0.87998z" fill="url(#color-10)" stroke="none" stroke-width="1.14186" stroke-linecap="round"/><path d="M346.51504,159.08675c3.1692,-0.23682 6.95644,0.4941 9.35106,1.29221c2.39464,0.79834 3.87691,1.90066 3.87691,3.11713c0,1.21644 -1.97428,2.81626 -3.87691,3.11713c-1.70161,0.2656 -3.25884,-1.38089 -4.94175,-1.22371c-0.84841,0.06975 -0.50227,1.27479 -1.28604,1.65998c-0.79441,0.51509 -1.99411,0.87873 -3.12326,0.85591c-2.33989,-0.04771 -4.50412,-0.14628 -6.06283,-1.03748c-2.06871,-0.99884 -3.86403,-2.63157 -4.04185,-4.22776c-0.05917,-0.72882 1.82544,-0.72987 2.75581,-1.10232c2.35309,-0.93479 4.57209,-2.24462 7.34887,-2.45108z" fill="url(#color-11)" stroke="none" stroke-width="1.09383" stroke-linecap="round"/><path d="M349.47324,163.8906c0.85568,-0.08702 0.66291,1.33998 1.59912,1.44691c1.35082,0.15125 2.82609,-1.33422 3.92512,-0.86199c1.80207,0.77723 2.18498,2.6931 3.40148,3.79315c0.95831,0.85582 3.0677,1.50396 3.0677,2.46652c0,0.96256 -1.5622,2.22845 -3.0677,2.46652c-1.34646,0.21015 -2.57866,-1.09267 -3.91029,-0.96828c-0.67134,0.05518 -0.39745,1.00873 -1.01762,1.31349c-0.6286,0.4076 -1.5779,0.69533 -2.47137,0.67727c-1.85149,-0.03777 -3.42096,-0.18841 -4.79737,-0.82093c-1.13247,-0.52027 -1.80963,-1.37568 -1.96256,-2.24732c-0.30325,-1.72563 -0.73938,-3.6772 0.29075,-5.23349c0.94232,-1.18216 3.14795,-1.84917 4.94274,-2.03184z" fill="url(#color-12)" stroke="none" stroke-width="0.86553" stroke-linecap="round"/><path d="M335.61903,159.96548c0.85568,-0.08702 0.66291,1.33998 1.59912,1.44691c1.35082,0.15125 2.82609,-1.33422 3.92512,-0.86199c1.80207,0.77723 2.18498,2.6931 3.40148,3.79315c0.95831,0.85582 3.0677,1.50396 3.0677,2.46652c0,0.96256 -1.5622,2.22845 -3.0677,2.46652c-1.34646,0.21015 -2.57866,-1.09267 -3.91029,-0.96828c-0.67134,0.05518 -0.39745,1.00873 -1.01762,1.31349c-0.6286,0.4076 -1.5779,0.69533 -2.47137,0.67727c-1.85149,-0.03777 -3.42096,-0.18841 -4.79737,-0.82093c-1.13247,-0.52027 -1.80963,-1.37568 -1.96256,-2.24732c-0.30325,-1.72563 -0.73938,-3.6772 0.29075,-5.23349c0.94232,-1.18216 3.14795,-1.84917 4.94274,-2.03184z" fill="url(#color-13)" stroke="none" stroke-width="0.86553" stroke-linecap="round"/><path d="M346.24799,179.37935c1.08764,-0.03088 1.99207,0.17204 2.77253,0.4256c4.17909,1.60665 3.09459,2.23813 2.51269,2.66193c-0.50239,0.24225 -1.83443,-0.56286 -2.79306,-0.50201c-0.48514,0.02788 -0.23635,0.72097 -0.72687,0.68096c-1.028,-0.09481 -1.49611,-1.04836 -2.62713,-1.14913c-1.04298,-0.0867 -1.89569,0.74641 -2.9075,0.63308c-1.01265,-0.16215 -1.97419,-0.7399 -1.9418,-1.29276c0.02762,-0.4454 1.32954,-0.53422 2.08717,-0.81927c1.16527,-0.20579 2.34926,-0.60086 3.62396,-0.6384z" fill="url(#color-14)" stroke="none" stroke-width="0.56751" stroke-linecap="round"/><path d="M331.62329,153.60969c1.08764,-0.04254 1.99207,0.23702 2.77253,0.58638c4.17909,2.21359 3.09459,3.08363 2.51269,3.66754c-0.50239,0.33378 -1.83443,-0.77549 -2.79306,-0.69163c-0.48514,0.03841 -0.23635,0.99332 -0.72687,0.93819c-1.028,-0.1306 -1.49611,-1.44441 -2.62713,-1.58322c-1.04298,-0.1195 -1.89569,1.02835 -2.9075,0.87225c-1.01265,-0.22341 -1.97419,-1.01943 -1.9418,-1.78116c0.02762,-0.61366 1.32954,-0.73606 2.08717,-1.12878c1.16527,-0.28354 2.34926,-0.82785 3.62396,-0.87958z" fill="url(#color-15)" stroke="none" stroke-width="0.61823" stroke-linecap="round"/><path d="M334.77885,174.5595c0,2.32409 -2.0038,4.20871 -4.47604,4.20871c-2.47224,0 -4.47588,-1.88382 -4.47588,-4.20871c0,-2.32409 2.00348,-3.40367 4.47588,-3.40367c2.47208,-0.00016 4.47604,1.07973 4.47604,3.40367z" fill="#ffe100" stroke="none" stroke-width="1" stroke-linecap="butt"/><g fill="#231f20" stroke="none" stroke-width="1" stroke-linecap="butt"><path d="M335.28008,174.51454c0,2.58471 -2.2281,4.68018 -4.97695,4.68018c-2.74837,0 -4.97663,-2.09547 -4.97663,-4.68018c0,-2.27786 1.73119,-3.30335 4.02344,-3.51517c0,0 0.72441,-0.09279 1.46162,-0.03024c2.50919,0.11679 4.46852,1.12261 4.46852,3.54541zM334.52079,174.58318c0,-2.01612 -1.60096,-3.03714 -3.67148,-3.18689c0,0 -1.31299,0.0184 -1.35283,0.02304c-1.94301,0.21454 -3.4099,1.23348 -3.4099,3.16353c0,2.18954 1.88749,3.96521 4.21671,3.96521c2.32905,0 4.21655,-1.77535 4.2175,-3.96489z"/><path d="M331.73546,172.42579c-0.57082,0.02896 -1.11765,0.04336 -1.68959,0.10751c-0.38188,0.04288 -0.74985,0.04623 -1.0327,-0.24222c-0.06144,-0.06319 0.01888,-0.17214 0.09567,-0.12367c0.1891,0.11855 0.37964,0.16654 0.5713,0.17582c0.01248,0.01024 0.68377,-0.07839 0.9903,-0.17566c0.36988,-0.10079 0.74009,-0.18398 1.10853,-0.06223c0.17614,0.05823 0.14207,0.31069 -0.04352,0.32045z"/></g><path d="M327.3351,174.53694c0,0.54891 0.29597,0.99382 -0.01344,0.99382c-0.30941,0 -0.55995,-0.44492 -0.55995,-0.99382c0,-0.54875 0.25054,-0.99366 0.55995,-0.99366c0.30941,0 0.01344,0.44508 0.01344,0.99366z" fill="#ffffff" stroke="none" stroke-width="1" stroke-linecap="butt"/><g stroke="none" stroke-width="1" stroke-linecap="butt"><path d="M329.18468,169.80541c0.16334,-0.09759 0.32621,-0.1955 0.48939,-0.29325c0.11743,0.18046 0.2355,0.3566 0.33021,0.55706c0.34589,0.73017 0.26973,1.50145 0.25981,2.2737c-0.05999,0.01424 -0.1563,0.02448 -0.21566,0.03504c0.04127,-0.98358 -0.19278,-1.88525 -0.86376,-2.57255z" fill="#99661d"/><path d="M330.65349,172.00551c0,0 -0.0368,0.30013 -0.04016,0.35676c0,0 -0.6033,0.17982 -0.83992,0.08991l-0.00736,-0.25742c0.0048,-0.51435 -0.15518,-1.06677 -0.2499,-1.23972c-0.04528,-0.08255 -0.22766,-0.55451 -0.78392,-1.04902c-0.09535,-0.08431 -0.06319,-0.24238 0.03872,-0.30365c0.28909,-0.17342 0.57738,-0.34685 0.86615,-0.52027c0.09279,-0.05552 0.20238,-0.01408 0.26525,0.06959c0.88439,1.17716 0.77816,2.73205 0.75113,2.8538zM330.24777,172.11974c0.01792,-0.71065 0.07839,-1.37106 -0.2435,-2.05052c-0.09471,-0.20046 -0.21278,-0.3766 -0.33021,-0.55706c-0.16318,0.09775 -0.32605,0.19566 -0.48939,0.29325c0.63386,0.64922 0.89271,1.4349 0.88471,2.34905v0.1843l0.17742,-0.02256z" fill="#231f20"/></g><path d="M348.15332,173.25112c0,2.32409 -2.0038,4.2087 -4.47604,4.2087c-2.47224,0 -4.47588,-1.88382 -4.47588,-4.2087c0,-2.32409 2.00348,-3.40367 4.47588,-3.40367c2.47208,-0.00016 4.47604,1.07973 4.47604,3.40367z" fill="#ffe100" stroke="none" stroke-width="1" stroke-linecap="butt"/><g fill="#231f20" stroke="none" stroke-width="1" stroke-linecap="butt"><path d="M348.65455,173.20617c0,2.58471 -2.2281,4.68018 -4.97695,4.68018c-2.74837,0 -4.97663,-2.09547 -4.97663,-4.68018c0,-2.27786 1.73119,-3.30335 4.02344,-3.51518c0,0 0.72441,-0.09279 1.46162,-0.03024c2.50919,0.11679 4.46852,1.12261 4.46852,3.54541zM347.89527,173.2748c0,-2.01612 -1.60096,-3.03714 -3.67148,-3.18689c0,0 -1.31299,0.0184 -1.35283,0.02304c-1.94301,0.21454 -3.4099,1.23348 -3.4099,3.16353c0,2.18954 1.8875,3.96521 4.21671,3.96521c2.32905,0 4.21655,-1.77535 4.2175,-3.96489z"/><path d="M345.10995,171.11742c-0.57083,0.02896 -1.11765,0.04335 -1.68959,0.10751c-0.38188,0.04288 -0.74984,0.04623 -1.0327,-0.24222c-0.06144,-0.06319 0.01888,-0.17214 0.09567,-0.12367c0.1891,0.11855 0.37964,0.16654 0.5713,0.17582c0.01248,0.01024 0.68377,-0.07839 0.9903,-0.17566c0.36988,-0.10079 0.74009,-0.18398 1.10853,-0.06223c0.17614,0.05823 0.14207,0.31069 -0.04351,0.32045z"/></g><path d="M340.70958,173.22857c0,0.54891 0.29597,0.99382 -0.01344,0.99382c-0.30941,0 -0.55995,-0.44492 -0.55995,-0.99382c0,-0.54875 0.25054,-0.99366 0.55995,-0.99366c0.30941,0 0.01344,0.44508 0.01344,0.99366z" fill="#ffffff" stroke="none" stroke-width="1" stroke-linecap="butt"/><g stroke="none" stroke-width="1" stroke-linecap="butt"><path d="M342.55916,168.49704c0.16334,-0.09759 0.32621,-0.1955 0.48939,-0.29325c0.11743,0.18046 0.2355,0.3566 0.33021,0.55706c0.34589,0.73017 0.26973,1.50145 0.25981,2.2737c-0.06,0.01424 -0.15631,0.02448 -0.21566,0.03504c0.04128,-0.98358 -0.19278,-1.88525 -0.86375,-2.57255z" fill="#99661d"/><path d="M344.02797,170.69714c0,0 -0.0368,0.30013 -0.04016,0.35676c0,0 -0.6033,0.17982 -0.83992,0.08991l-0.00736,-0.25742c0.0048,-0.51435 -0.15519,-1.06677 -0.2499,-1.23972c-0.04528,-0.08255 -0.22766,-0.55451 -0.78392,-1.04902c-0.09535,-0.08431 -0.06319,-0.24237 0.03872,-0.30365c0.28909,-0.17342 0.57738,-0.34685 0.86615,-0.52027c0.09279,-0.05551 0.20238,-0.01408 0.26525,0.06959c0.88439,1.17716 0.77816,2.73205 0.75113,2.8538zM343.62225,170.81137c0.01792,-0.71065 0.07839,-1.37107 -0.2435,-2.05052c-0.09471,-0.20046 -0.21278,-0.3766 -0.33021,-0.55706c-0.16319,0.09775 -0.32605,0.19566 -0.48939,0.29325c0.63386,0.64921 0.89271,1.4349 0.88471,2.34905v0.1843l0.17742,-0.02256z" fill="#231f20"/></g><path d="M338.84934,162.05727c0,2.32409 -2.0038,4.20871 -4.47604,4.20871c-2.47224,0 -4.47588,-1.88382 -4.47588,-4.20871c0,-2.32409 2.00348,-3.40367 4.47588,-3.40367c2.47208,-0.00016 4.47604,1.07973 4.47604,3.40367z" fill="#ffe100" stroke="none" stroke-width="1" stroke-linecap="butt"/><g fill="#231f20" stroke="none" stroke-width="1" stroke-linecap="butt"><path d="M339.35057,162.01232c0,2.58471 -2.2281,4.68018 -4.97695,4.68018c-2.74837,0 -4.97663,-2.09547 -4.97663,-4.68018c0,-2.27786 1.73119,-3.30335 4.02344,-3.51517c0,0 0.72441,-0.09279 1.46162,-0.03024c2.50919,0.11679 4.46852,1.12261 4.46852,3.54541zM338.59128,162.08095c0,-2.01612 -1.60096,-3.03714 -3.67148,-3.18689c0,0 -1.31299,0.0184 -1.35283,0.02304c-1.94301,0.21454 -3.4099,1.23348 -3.4099,3.16353c0,2.18954 1.8875,3.96521 4.21671,3.96521c2.32905,0 4.21655,-1.77535 4.2175,-3.96489z"/><path d="M335.80596,159.92356c-0.57082,0.02896 -1.11765,0.04335 -1.68959,0.10751c-0.38188,0.04287 -0.74984,0.04623 -1.0327,-0.24222c-0.06144,-0.06319 0.01888,-0.17214 0.09567,-0.12367c0.1891,0.11855 0.37964,0.16654 0.57131,0.17582c0.01248,0.01024 0.68377,-0.07839 0.9903,-0.17566c0.36989,-0.10079 0.74009,-0.18398 1.10853,-0.06223c0.17614,0.05823 0.14207,0.31069 -0.04352,0.32045z"/></g><path d="M331.40559,162.03471c0,0.54891 0.29597,0.99382 -0.01344,0.99382c-0.30941,0 -0.55995,-0.44492 -0.55995,-0.99382c0,-0.54875 0.25054,-0.99366 0.55995,-0.99366c0.30941,0 0.01344,0.44508 0.01344,0.99366z" fill="#ffffff" stroke="none" stroke-width="1" stroke-linecap="butt"/><g stroke="none" stroke-width="1" stroke-linecap="butt"><path d="M333.25517,157.30318c0.16334,-0.09759 0.32621,-0.1955 0.48939,-0.29325c0.11743,0.18046 0.2355,0.3566 0.33021,0.55706c0.34589,0.73017 0.26973,1.50145 0.25981,2.2737c-0.05999,0.01424 -0.15631,0.02448 -0.21566,0.03504c0.04127,-0.98358 -0.19278,-1.88525 -0.86375,-2.57255z" fill="#99661d"/><path d="M334.72399,159.50328c0,0 -0.0368,0.30013 -0.04016,0.35676c0,0 -0.6033,0.17982 -0.83992,0.08991l-0.00736,-0.25742c0.0048,-0.51435 -0.15518,-1.06677 -0.2499,-1.23972c-0.04528,-0.08255 -0.22766,-0.55451 -0.78392,-1.04902c-0.09535,-0.08431 -0.06319,-0.24237 0.03872,-0.30365c0.28909,-0.17342 0.57738,-0.34685 0.86615,-0.52027c0.09279,-0.05551 0.20238,-0.01408 0.26525,0.06959c0.88439,1.17717 0.77816,2.73205 0.75113,2.8538zM334.31827,159.61751c0.01792,-0.71065 0.07839,-1.37106 -0.2435,-2.05052c-0.09471,-0.20046 -0.21278,-0.3766 -0.33021,-0.55706c-0.16318,0.09775 -0.32605,0.19566 -0.48939,0.29325c0.63386,0.64922 0.89271,1.4349 0.88471,2.34905v0.1843l0.17742,-0.02256z" fill="#231f20"/></g><path d="M353.38682,161.18502c0,2.32409 -2.0038,4.2087 -4.47604,4.2087c-2.47224,0 -4.47588,-1.88381 -4.47588,-4.2087c0,-2.32409 2.00348,-3.40367 4.47588,-3.40367c2.47208,-0.00016 4.47604,1.07973 4.47604,3.40367z" fill="#ffe100" stroke="none" stroke-width="1" stroke-linecap="butt"/><g fill="#231f20" stroke="none" stroke-width="1" stroke-linecap="butt"><path d="M353.88805,161.14007c0,2.58471 -2.2281,4.68018 -4.97695,4.68018c-2.74837,0 -4.97663,-2.09548 -4.97663,-4.68018c0,-2.27785 1.73119,-3.30335 4.02344,-3.51517c0,0 0.72441,-0.09279 1.46162,-0.03024c2.50919,0.11679 4.46852,1.12261 4.46852,3.54541zM353.12876,161.2087c0,-2.01612 -1.60096,-3.03714 -3.67148,-3.18689c0,0 -1.31299,0.0184 -1.35283,0.02304c-1.94301,0.21454 -3.4099,1.23348 -3.4099,3.16353c0,2.18954 1.88749,3.96521 4.21671,3.96521c2.32905,0 4.21655,-1.77535 4.2175,-3.96489z"/><path d="M350.34343,159.05131c-0.57082,0.02896 -1.11765,0.04335 -1.68959,0.10751c-0.38188,0.04287 -0.74985,0.04623 -1.0327,-0.24222c-0.06144,-0.06319 0.01888,-0.17214 0.09567,-0.12367c0.1891,0.11855 0.37964,0.16654 0.5713,0.17582c0.01248,0.01024 0.68377,-0.07839 0.9903,-0.17566c0.36989,-0.10079 0.74009,-0.18398 1.10853,-0.06223c0.17614,0.05823 0.14207,0.31069 -0.04352,0.32045z"/></g><path d="M345.94307,161.16246c0,0.54891 0.29597,0.99382 -0.01344,0.99382c-0.30941,0 -0.55995,-0.44491 -0.55995,-0.99382c0,-0.54875 0.25054,-0.99366 0.55995,-0.99366c0.30941,0 0.01344,0.44508 0.01344,0.99366z" fill="#ffffff" stroke="none" stroke-width="1" stroke-linecap="butt"/><g stroke="none" stroke-width="1" stroke-linecap="butt"><path d="M347.79265,156.43093c0.16334,-0.09759 0.32621,-0.1955 0.48939,-0.29325c0.11743,0.18046 0.2355,0.3566 0.33021,0.55706c0.34589,0.73017 0.26973,1.50145 0.25981,2.2737c-0.06,0.01424 -0.15631,0.02448 -0.21566,0.03504c0.04128,-0.98358 -0.19278,-1.88525 -0.86375,-2.57255z" fill="#99661d"/><path d="M349.26146,158.63103c0,0 -0.0368,0.30013 -0.04016,0.35676c0,0 -0.6033,0.17982 -0.83992,0.08991l-0.00736,-0.25742c0.0048,-0.51435 -0.15518,-1.06677 -0.2499,-1.23972c-0.04528,-0.08255 -0.22766,-0.55451 -0.78392,-1.04902c-0.09535,-0.08431 -0.06319,-0.24237 0.03872,-0.30365c0.28909,-0.17342 0.57738,-0.34685 0.86615,-0.52027c0.09279,-0.05551 0.20238,-0.01408 0.26525,0.06959c0.88439,1.17717 0.77816,2.73205 0.75113,2.8538zM348.85574,158.74526c0.01792,-0.71065 0.07839,-1.37106 -0.24349,-2.05052c-0.09471,-0.20046 -0.21278,-0.3766 -0.33021,-0.55706c-0.16319,0.09775 -0.32605,0.19566 -0.48939,0.29325c0.63386,0.64922 0.89271,1.4349 0.88471,2.34905v0.1843l0.17742,-0.02256z" fill="#231f20"/></g><path d="M356.4939,174.6615c0,1.90849 -1.64548,3.4561 -3.67563,3.4561c-2.03015,0 -3.6755,-1.54695 -3.6755,-3.4561c0,-1.90849 1.64522,-2.79502 3.6755,-2.79502c2.03002,-0.00013 3.67563,0.88666 3.67563,2.79502z" fill="#ffe100" stroke="none" stroke-width="1" stroke-linecap="butt"/><g fill="#231f20" stroke="none" stroke-width="1" stroke-linecap="butt"><path d="M356.9055,174.62458c0,2.1225 -1.82967,3.84326 -4.08697,3.84326c-2.2569,0 -4.0867,-1.72076 -4.0867,-3.84326c0,-1.87053 1.42162,-2.71265 3.30397,-2.88659c0,0 0.59487,-0.0762 1.20025,-0.02483c2.0605,0.0959 3.66945,0.92186 3.66945,2.91142zM356.28199,174.68094c0,-1.6556 -1.31468,-2.49403 -3.01494,-2.617c0,0 -1.0782,0.01511 -1.11091,0.01892c-1.59556,0.17618 -2.80014,1.01291 -2.80014,2.59782c0,1.79801 1.54997,3.25615 3.46267,3.25615c1.91257,0 3.46254,-1.45788 3.46333,-3.25588z"/><path d="M353.99474,172.90934c-0.46875,0.02378 -0.91779,0.0356 -1.38746,0.08828c-0.31359,0.03521 -0.61576,0.03797 -0.84803,-0.1989c-0.05045,-0.05189 0.0155,-0.14136 0.07856,-0.10155c0.15529,0.09735 0.31175,0.13676 0.46914,0.14438c0.01025,0.00841 0.5615,-0.06437 0.81321,-0.14425c0.30374,-0.08277 0.60774,-0.15108 0.9103,-0.05111c0.14464,0.04782 0.11666,0.25513 -0.03573,0.26315z"/></g><path d="M350.38126,174.64298c0,0.45075 0.24304,0.81611 -0.01104,0.81611c-0.25408,0 -0.45982,-0.36536 -0.45982,-0.81611c0,-0.45062 0.20574,-0.81597 0.45982,-0.81597c0.25408,0 0.01104,0.36549 0.01104,0.81597z" fill="#ffffff" stroke="none" stroke-width="1" stroke-linecap="butt"/><g stroke="none" stroke-width="1" stroke-linecap="butt"><path d="M351.90009,170.75754c0.13413,-0.08014 0.26787,-0.16054 0.40188,-0.24081c0.09643,0.14819 0.19339,0.29284 0.27116,0.45745c0.28403,0.5996 0.2215,1.23296 0.21335,1.86711c-0.04927,0.01169 -0.12835,0.0201 -0.17709,0.02877c0.0339,-0.8077 -0.15831,-1.54813 -0.7093,-2.11252z" fill="#99661d"/><path d="M353.10625,172.56422c0,0 -0.03022,0.24646 -0.03298,0.29297c0,0 -0.49542,0.14767 -0.68972,0.07383l-0.00604,-0.21138c0.00394,-0.42237 -0.12743,-0.87601 -0.20521,-1.01803c-0.03718,-0.06779 -0.18695,-0.45535 -0.64374,-0.86143c-0.0783,-0.06923 -0.05189,-0.19903 0.03179,-0.24935c0.2374,-0.14241 0.47414,-0.28482 0.71127,-0.42723c0.0762,-0.04559 0.16619,-0.01156 0.21782,0.05715c0.72624,0.96666 0.63901,2.2435 0.61681,2.34348zM352.77308,172.65802c0.01471,-0.58357 0.06437,-1.12589 -0.19995,-1.68384c-0.07777,-0.16461 -0.17473,-0.30926 -0.27116,-0.45745c-0.134,0.08027 -0.26774,0.16067 -0.40188,0.24081c0.52051,0.53312 0.73308,1.17831 0.72651,1.92899v0.15135l0.14569,-0.01853z" fill="#231f20"/></g><path d="M344.57317,155.18128c0,1.90849 -1.64548,3.4561 -3.67563,3.4561c-2.03015,0 -3.6755,-1.54695 -3.6755,-3.4561c0,-1.90849 1.64522,-2.79502 3.6755,-2.79502c2.03002,-0.00013 3.67563,0.88666 3.67563,2.79502z" fill="#ffe100" stroke="none" stroke-width="1" stroke-linecap="butt"/><g fill="#231f20" stroke="none" stroke-width="1" stroke-linecap="butt"><path d="M344.98477,155.14437c0,2.1225 -1.82967,3.84326 -4.08697,3.84326c-2.2569,0 -4.0867,-1.72076 -4.0867,-3.84326c0,-1.87053 1.42162,-2.71265 3.30397,-2.88659c0,0 0.59487,-0.0762 1.20025,-0.02483c2.0605,0.0959 3.66945,0.92186 3.66945,2.91142zM344.36126,155.20073c0,-1.6556 -1.31468,-2.49403 -3.01494,-2.617c0,0 -1.0782,0.01511 -1.11091,0.01892c-1.59556,0.17618 -2.80014,1.01291 -2.80014,2.59782c0,1.79801 1.54997,3.25615 3.46267,3.25615c1.91257,0 3.46254,-1.45788 3.46333,-3.25588z"/><path d="M342.07401,153.42912c-0.46875,0.02378 -0.91779,0.0356 -1.38746,0.08828c-0.31359,0.03521 -0.61576,0.03797 -0.84803,-0.1989c-0.05045,-0.05189 0.0155,-0.14136 0.07856,-0.10155c0.15529,0.09735 0.31175,0.13676 0.46914,0.14438c0.01025,0.00841 0.5615,-0.06437 0.81321,-0.14425c0.30374,-0.08277 0.60774,-0.15108 0.9103,-0.05111c0.14464,0.04782 0.11666,0.25513 -0.03573,0.26315z"/></g><path d="M338.46053,155.16276c0,0.45075 0.24304,0.81611 -0.01104,0.81611c-0.25408,0 -0.45982,-0.36536 -0.45982,-0.81611c0,-0.45062 0.20574,-0.81597 0.45982,-0.81597c0.25408,0 0.01104,0.36549 0.01104,0.81597z" fill="#ffffff" stroke="none" stroke-width="1" stroke-linecap="butt"/><g stroke="none" stroke-width="1" stroke-linecap="butt"><path d="M339.97936,151.27732c0.13413,-0.08014 0.26787,-0.16054 0.40188,-0.24081c0.09643,0.14819 0.19339,0.29284 0.27116,0.45745c0.28403,0.5996 0.2215,1.23296 0.21335,1.86711c-0.04927,0.01169 -0.12835,0.0201 -0.17709,0.02877c0.0339,-0.8077 -0.15831,-1.54813 -0.7093,-2.11252z" fill="#99661d"/><path d="M341.18552,153.084c0,0 -0.03022,0.24646 -0.03298,0.29297c0,0 -0.49542,0.14767 -0.68972,0.07383l-0.00604,-0.21138c0.00394,-0.42237 -0.12743,-0.87601 -0.20521,-1.01803c-0.03718,-0.06779 -0.18695,-0.45535 -0.64374,-0.86143c-0.0783,-0.06923 -0.05189,-0.19903 0.03179,-0.24935c0.2374,-0.14241 0.47414,-0.28482 0.71127,-0.42723c0.0762,-0.04559 0.16619,-0.01156 0.21782,0.05715c0.72624,0.96666 0.63901,2.2435 0.61681,2.34348zM340.85235,153.1778c0.01471,-0.58357 0.06437,-1.12589 -0.19995,-1.68384c-0.07777,-0.16461 -0.17473,-0.30926 -0.27116,-0.45745c-0.134,0.08027 -0.26774,0.16067 -0.40188,0.24081c0.52051,0.53312 0.73308,1.17831 0.72651,1.92899v0.15135l0.14569,-0.01853z" fill="#231f20"/></g></g></g></svg>