<svg version="1.1" xmlns="http://www.w3.org/2000/svg" xmlns:xlink="http://www.w3.org/1999/xlink" width="233.5" height="106.25449" viewBox="0,0,233.5,106.25449"><g transform="translate(-147.75,-126.87281)"><g data-paper-data="{&quot;isPaintingLayer&quot;:true}" fill-rule="nonzero" stroke-linecap="butt" stroke-linejoin="miter" stroke-miterlimit="10" stroke-dasharray="" stroke-dashoffset="0" style="mix-blend-mode: normal"><path d="M150.5,230.3773v-100.75449h179v100.75449z" fill="#ff0000" stroke="#000000" stroke-width="5.5"/><path d="M300.5,178.00005c0,-21.53911 17.46089,-39 39,-39c21.53911,0 39,17.46089 39,39c0,21.53911 -17.46089,39 -39,39c-21.53911,0 -39,-17.46089 -39,-39z" fill="#ffffff" stroke="#000000" stroke-width="5.5"/><text transform="translate(331,191.35826) scale(1.05928,1.05928)" font-size="40" xml:space="preserve" fill="#000000" fill-rule="nonzero" stroke="none" stroke-width="1" stroke-linecap="butt" stroke-linejoin="miter" stroke-miterlimit="10" stroke-dasharray="" stroke-dashoffset="0" font-family="Sans Serif" font-weight="normal" text-anchor="start" style="mix-blend-mode: normal"><tspan x="0" dy="0">?</tspan></text><g fill="#000000"><path d="M217.94984,215.55382v-13.31888h43.36038v13.31888z" stroke="none" stroke-width="0"/><path d="M210.73198,208.36003l0.21625,-28.92035l26.38807,-5.11166l31.93171,5.54016l-0.21625,28.92035l-12.534,-8.74652l-1.44592,-19.99187l-32.72384,-1.11207l-1.85332,25.48244z" data-paper-data="{&quot;origRot&quot;:0}" stroke="none" stroke-width="0"/><path d="M225.47283,179.2375c0,4.06204 -3.24658,7.35499 -7.2514,7.35499c-4.00483,0 -7.2514,-3.29295 -7.2514,-7.35499c0,-4.06204 3.24658,-7.35499 7.2514,-7.35499c4.00483,0 7.2514,3.29295 7.2514,7.35499z" stroke="none" stroke-width="0"/><path d="M269.16623,179.40639c0,4.15529 -3.32111,7.52387 -7.41787,7.52387c-4.0968,0 -7.41787,-3.36854 -7.41787,-7.52387c0,-4.15529 3.32111,-7.52387 7.41787,-7.52387c4.0968,0 7.41787,3.36854 7.41787,7.52387z" stroke="none" stroke-width="0"/><path d="M225.26754,208.21353c0,4.02527 -3.21717,7.2884 -7.18573,7.2884c-3.96857,0 -7.18573,-3.26313 -7.18573,-7.2884c0,-4.02527 3.21717,-7.2884 7.18573,-7.2884c3.96857,0 7.18573,3.26313 7.18573,7.2884z" stroke="none" stroke-width="0"/><path d="M269.09221,208.48464c0,3.87553 -3.09747,7.01725 -6.91843,7.01725c-3.82096,0 -6.91843,-3.14175 -6.91843,-7.01725c0,-3.87553 3.09747,-7.01725 6.91843,-7.01725c3.82096,0 6.91843,3.14175 6.91843,7.01725z" stroke="none" stroke-width="0"/><g stroke="none" stroke-width="0"><g><path d="M234.50559,152.68281c0,2.26688 -6.87415,1.24023 -6.87415,1.24023c0,0 1.01878,6.85682 -1.2229,6.85682c-4.47186,0 -8.09705,-3.62515 -8.09705,-8.09705c0,-4.47186 3.62515,-8.09705 8.09705,-8.09705c4.47186,0 8.09705,3.62515 8.09705,8.09705z" data-paper-data="{&quot;origPos&quot;:null}"/><path d="M218.31153,185.97063v-31.9383h9.44653v31.9383z" data-paper-data="{&quot;origPos&quot;:null}"/></g><g data-paper-data="{&quot;index&quot;:null}"><path d="M253.59146,144.58576c4.47186,0 8.09705,3.62515 8.09705,8.09705c0,4.47186 -3.62515,8.09705 -8.09705,8.09705c-2.24168,0 -1.2229,-6.85682 -1.2229,-6.85682c0,0 -6.87415,1.02665 -6.87415,-1.24023c0,-4.47186 3.62515,-8.09705 8.09705,-8.09705z" data-paper-data="{&quot;origPos&quot;:null}"/><path d="M252.24194,185.97063v-31.9383h9.44653v31.9383z" data-paper-data="{&quot;origPos&quot;:null}"/></g><path d="M226.23713,154.10478v-9.6586h27.76126v9.6586z" data-paper-data="{&quot;origPos&quot;:null}"/></g><path d="M224.81714,206.385l5.79127,-14.66972l5.6352,0.19156l-5.12532,16.66754z" data-paper-data="{&quot;origRot&quot;:0}" stroke="#000000" stroke-width="0.5"/><path d="M249.25486,208.57437l-5.12532,-16.66754l5.6352,-0.19156l5.79127,14.66972z" data-paper-data="{&quot;origRot&quot;:0,&quot;index&quot;:null}" stroke="#000000" stroke-width="0.5"/><path d="M217.35787,204.30697v-24.97292l16.31566,-2.66377v27.63669z" stroke="#000000" stroke-width="0"/><path d="M218.68978,177.66921v-5.66051h39.6237v5.66051z" stroke="#000000" stroke-width="0"/><path d="M246.99242,204.63994v-26.30482h15.64971v26.30482z" stroke="#000000" stroke-width="0"/><path d="M232.67461,180v-4.66162h17.9805v4.66162z" stroke="#000000" stroke-width="0.5"/></g></g></g></svg>