<svg version="1.1" xmlns="http://www.w3.org/2000/svg" xmlns:xlink="http://www.w3.org/1999/xlink" width="146.34109" height="206.43249" viewBox="0,0,146.34109,206.43249"><defs><radialGradient cx="238.8902" cy="193.8657" r="54.7327" gradientUnits="userSpaceOnUse" id="color-1"><stop offset="0" stop-color="#995900"/><stop offset="1" stop-color="#663b00"/></radialGradient><radialGradient cx="210.661" cy="153.4891" r="27.7875" gradientUnits="userSpaceOnUse" id="color-2"><stop offset="0" stop-color="#006622"/><stop offset="1" stop-color="#009933"/></radialGradient><radialGradient cx="252.1609" cy="68.5487" r="58.9145" gradientUnits="userSpaceOnUse" id="color-3"><stop offset="0" stop-color="#006622"/><stop offset="1" stop-color="#009933"/></radialGradient><radialGradient cx="267.1154" cy="144.2248" r="38.9024" gradientUnits="userSpaceOnUse" id="color-4"><stop offset="0" stop-color="#006622"/><stop offset="1" stop-color="#009933"/></radialGradient><radialGradient cx="208.1819" cy="137.7248" r="39.3038" gradientUnits="userSpaceOnUse" id="color-5"><stop offset="0" stop-color="#006622"/><stop offset="1" stop-color="#009933"/></radialGradient><radialGradient cx="232.6154" cy="147.7248" r="38.9024" gradientUnits="userSpaceOnUse" id="color-6"><stop offset="0" stop-color="#006622"/><stop offset="1" stop-color="#009933"/></radialGradient><radialGradient cx="229.6154" cy="119.7248" r="38.9024" gradientUnits="userSpaceOnUse" id="color-7"><stop offset="0" stop-color="#006622"/><stop offset="1" stop-color="#009933"/></radialGradient><radialGradient cx="263.6154" cy="129.7248" r="38.9024" gradientUnits="userSpaceOnUse" id="color-8"><stop offset="0" stop-color="#006622"/><stop offset="1" stop-color="#009933"/></radialGradient><radialGradient cx="201.0953" cy="117.7254" r="38.9217" gradientUnits="userSpaceOnUse" id="color-9"><stop offset="0" stop-color="#006622"/><stop offset="1" stop-color="#009933"/></radialGradient><radialGradient cx="201.5651" cy="88.3685" r="54.4054" gradientUnits="userSpaceOnUse" id="color-10"><stop offset="0" stop-color="#006622"/><stop offset="1" stop-color="#009933"/></radialGradient><radialGradient cx="262.6288" cy="93.878" r="49.1641" gradientUnits="userSpaceOnUse" id="color-11"><stop offset="0" stop-color="#006622"/><stop offset="1" stop-color="#009933"/></radialGradient><radialGradient cx="278.722" cy="112.1745" r="42.4565" gradientUnits="userSpaceOnUse" id="color-12"><stop offset="0" stop-color="#006622"/><stop offset="1" stop-color="#009933"/></radialGradient><radialGradient cx="231.072" cy="98.6745" r="42.4565" gradientUnits="userSpaceOnUse" id="color-13"><stop offset="0" stop-color="#006622"/><stop offset="1" stop-color="#009933"/></radialGradient><radialGradient cx="257.1539" cy="157.6221" r="22.505" gradientUnits="userSpaceOnUse" id="color-14"><stop offset="0" stop-color="#006622"/><stop offset="1" stop-color="#009933"/></radialGradient><radialGradient cx="206.8539" cy="70.3549" r="24.5166" gradientUnits="userSpaceOnUse" id="color-15"><stop offset="0" stop-color="#006622"/><stop offset="1" stop-color="#009933"/></radialGradient></defs><g transform="translate(-163.4589,-54.42508)"><g data-paper-data="{&quot;isPaintingLayer&quot;:true}" fill-rule="nonzero" stroke-linejoin="miter" stroke-miterlimit="10" stroke-dasharray="" stroke-dashoffset="0" style="mix-blend-mode: normal"><path d="M224.2726,125.268h28.3616v135.0082h-28.3616z" fill="url(#color-1)" stroke="#995900" stroke-width="1.16275" stroke-linecap="butt"/><path d="M208.2571,148.0282c6.1608,-0.4604 13.5229,0.9605 18.1779,2.5119c4.655,1.5519 7.5364,3.6948 7.5364,6.0595c0,2.3647 -3.8378,5.4746 -7.5364,6.0595c-3.3079,0.5163 -6.335,-2.6844 -9.6064,-2.3788c-1.6493,0.1356 -0.9765,2.4781 -2.5,3.2268c-1.5443,1.0014 -3.8765,1.7083 -6.0715,1.6639c-4.5485,-0.0928 -8.7557,-0.2844 -11.7857,-2.0168c-4.0214,-1.9417 -7.5114,-5.1156 -7.8571,-8.2185c-0.115,-1.4168 3.5486,-1.4188 5.3571,-2.1428c4.5743,-1.8172 8.8879,-4.3634 14.2857,-4.7647z" fill="url(#color-2)" stroke="none" stroke-width="0.61823" stroke-linecap="round"/><path d="M237.3265,54.4413c4.2919,-0.3692 3.3251,5.6852 8.021,6.1388c6.7754,0.6418 14.1751,-5.6608 19.6877,-3.6572c9.0388,3.2976 10.9595,11.4261 17.0612,16.0934c4.8068,3.631 15.3871,6.3809 15.3871,10.4647c0,4.0839 -7.8357,9.4547 -15.3871,10.4648c-6.7536,0.8916 -12.9341,-4.6359 -19.6133,-4.1082c-3.3674,0.2342 -1.9936,4.2797 -5.1043,5.5728c-3.1529,1.7293 -7.9144,2.9501 -12.3959,2.8735c-9.2868,-0.1602 -17.159,-0.7994 -24.0628,-3.483c-5.6803,-2.2074 -9.0768,-5.8367 -9.8439,-9.5348c-1.5211,-7.3213 -3.7086,-15.6014 1.4584,-22.2043c4.7265,-5.0156 15.7895,-7.8455 24.7919,-8.6205z" fill="url(#color-3)" stroke="none" stroke-width="1.20104" stroke-linecap="round"/><path d="M263.75,136.5794c8.625,-0.6445 18.932,1.3447 25.449,3.5167c6.517,2.1727 10.551,5.1727 10.551,8.4833c0,3.3106 -5.373,7.6645 -10.551,8.4833c-4.631,0.7228 -8.869,-3.7581 -13.449,-3.3303c-2.309,0.1898 -1.367,3.4694 -3.5,4.5176c-2.162,1.4019 -5.427,2.3915 -8.5,2.3294c-6.368,-0.1299 -12.258,-0.3981 -16.5,-2.8235c-5.63,-2.7184 -10.516,-7.1619 -11,-11.5059c-0.161,-1.9835 4.968,-1.9864 7.5,-3c6.404,-2.544 12.443,-6.1087 20,-6.6706z" fill="url(#color-4)" stroke="none" stroke-width="0.86553" stroke-linecap="round"/><path d="M205.25,130.0794c8.625,-0.6445 18.932,1.3447 25.449,3.5167c6.517,2.1727 10.551,5.1727 10.551,8.4833c0,3.3106 -5.373,7.6645 -10.551,8.4833c-4.631,0.7228 -8.869,-3.7581 -13.449,-3.3303c-2.309,0.1898 -1.367,3.4694 -3.5,4.5176c-2.162,1.4019 -5.427,2.3915 -8.5,2.3294c-6.368,-0.1299 -11.351,-1.2134 -16.5,-2.8235c-4.442,-1.409 -10.98,-1.8537 -11.75,-4.7647c-0.88,-3.9297 4.393,-7.6447 8.25,-9.7412c5.859,-3.1376 12.443,-6.1087 20,-6.6706z" fill="url(#color-5)" stroke="none" stroke-width="0.86553" stroke-linecap="round"/><path d="M229.25,140.0794c8.625,-0.6445 18.932,1.3447 25.449,3.5167c6.517,2.1727 10.551,5.1727 10.551,8.4833c0,3.3106 -5.373,7.6645 -10.551,8.4833c-4.631,0.7228 -8.869,-3.7581 -13.449,-3.3303c-2.309,0.1898 -1.367,3.4694 -3.5,4.5176c-2.162,1.4019 -5.427,2.3915 -8.5,2.3294c-6.368,-0.1299 -12.258,-0.3981 -16.5,-2.8235c-5.63,-2.7184 -10.516,-7.1619 -11,-11.5059c-0.161,-1.9835 4.968,-1.9864 7.5,-3c6.404,-2.544 12.443,-6.1087 20,-6.6706z" fill="url(#color-6)" stroke="none" stroke-width="0.86553" stroke-linecap="round"/><path d="M226.25,112.0794c8.625,-0.6445 18.932,1.3447 25.449,3.5167c6.517,2.1727 10.551,5.1727 10.551,8.4833c0,3.3106 -5.373,7.6645 -10.551,8.4833c-4.631,0.7228 -8.869,-3.7581 -13.449,-3.3303c-2.309,0.1898 -1.367,3.4694 -3.5,4.5176c-2.162,1.4019 -5.427,2.3915 -8.5,2.3294c-6.368,-0.1299 -12.258,-0.3981 -16.5,-2.8235c-5.63,-2.7184 -10.516,-7.1619 -11,-11.5059c-0.161,-1.9835 4.968,-1.9864 7.5,-3c6.404,-2.544 12.443,-6.1087 20,-6.6706z" fill="url(#color-7)" stroke="none" stroke-width="0.86553" stroke-linecap="round"/><path d="M260.25,122.0794c8.625,-0.6445 18.932,1.3447 25.449,3.5167c6.517,2.1727 10.551,5.1727 10.551,8.4833c0,3.3106 -5.373,7.6645 -10.551,8.4833c-4.631,0.7228 -8.869,-3.7581 -13.449,-3.3303c-2.309,0.1898 -1.367,3.4694 -3.5,4.5176c-2.162,1.4019 -5.427,2.3915 -8.5,2.3294c-6.368,-0.1299 -12.258,-0.3981 -16.5,-2.8235c-5.63,-2.7184 -10.516,-7.1619 -11,-11.5059c-0.161,-1.9835 4.968,-1.9864 7.5,-3c6.404,-2.544 12.443,-6.1087 20,-6.6706z" fill="url(#color-8)" stroke="none" stroke-width="0.86553" stroke-linecap="round"/><path d="M197.75,110.0794c8.625,-0.6445 18.932,1.3447 25.449,3.5167c6.517,2.1727 10.551,5.1727 10.551,8.4833c0,3.3106 -5.373,7.6645 -10.551,8.4833c-4.631,0.7228 -8.869,-3.7581 -13.449,-3.3303c-2.309,0.1898 -1.367,3.4694 -3.5,4.5176c-2.162,1.4019 -5.48,2.2313 -8.5,2.3294c-2.791,0.0664 -5.469,-0.6007 -7.75,-1.5882c-3.37,-1.4534 -5.307,-4.4146 -8,-6.4941c-3.917,-2.1847 -10.74,-3.077 -11.75,-6.2471c-0.585,-1.8127 4.968,-1.9864 7.5,-3c6.404,-2.544 12.443,-6.1087 20,-6.6706z" fill="url(#color-9)" stroke="none" stroke-width="0.86553" stroke-linecap="round"/><path d="M191.4544,79.4823c1.2269,-0.1024 1.6689,-0.6994 3.2322,-1.0709c5.8774,-1.3988 12.8233,-6.0541 17.8102,-3.9113c8.1768,3.5267 9.9143,12.2199 15.4341,17.2114c4.3484,3.8833 13.9197,6.8242 13.9197,11.1918c0,4.3675 -7.0885,10.1115 -13.9197,11.1918c-6.1095,0.9536 -11.7006,-4.958 -17.7428,-4.3937c-3.0462,0.2505 -1.8035,4.5771 -4.6175,5.96c-2.8523,1.8495 -7.1597,3.1551 -11.2138,3.0731c-8.4011,-0.1713 -15.5226,-0.8548 -21.768,-3.725c-5.1386,-2.3607 -10.2758,-6.3353 -8.9051,-10.1972c2.1583,-5.9879 12.9394,-8.2751 15.8313,-13.829c1.5171,-2.9018 -7.4526,-6.0336 -5.0133,-8.4744c3.1597,-3.1597 11.2297,-1.7182 16.9527,-3.0266z" fill="url(#color-10)" stroke="none" stroke-width="1.14186" stroke-linecap="round"/><path d="M258.3756,84.2159c10.9001,-0.8145 23.9259,1.6994 32.1619,4.4444c8.2361,2.7458 13.3342,6.5371 13.3342,10.721c0,4.1838 -6.7903,9.6862 -13.3342,10.721c-5.8525,0.9135 -11.2084,-4.7494 -16.9966,-4.2088c-2.918,0.2399 -1.7275,4.3845 -4.4232,5.7093c-2.7323,1.7716 -6.8585,3.0223 -10.7421,2.9438c-8.0478,-0.1641 -15.4914,-0.5031 -20.8524,-3.5683c-7.1151,-3.4354 -13.2899,-9.051 -13.9015,-14.5409c-0.2035,-2.5067 6.2784,-2.5103 9.4783,-3.7913c8.0932,-3.2151 15.7252,-7.7201 25.2756,-8.4302z" fill="url(#color-11)" stroke="none" stroke-width="1.09383" stroke-linecap="round"/><path d="M268.55,100.7382c2.943,-0.2993 2.28,4.6087 5.5,4.9765c4.646,0.5202 9.72,-4.5889 13.5,-2.9647c6.198,2.6732 7.515,9.2626 11.699,13.0461c3.296,2.9435 10.551,5.1727 10.551,8.4833c0,3.3106 -5.373,7.6645 -10.551,8.4833c-4.631,0.7228 -8.869,-3.7581 -13.449,-3.3303c-2.309,0.1898 -1.367,3.4694 -3.5,4.5176c-2.162,1.4019 -5.427,2.3915 -8.5,2.3294c-6.368,-0.1299 -11.766,-0.648 -16.5,-2.8235c-3.895,-1.7894 -6.224,-4.7315 -6.75,-7.7294c-1.043,-5.9351 -2.543,-12.6473 1,-18c3.241,-4.0659 10.827,-6.36 17,-6.9883z" fill="url(#color-12)" stroke="none" stroke-width="0.86553" stroke-linecap="round"/><path d="M220.9,87.2382c2.943,-0.2993 2.28,4.6087 5.5,4.9765c4.646,0.5202 9.72,-4.5889 13.5,-2.9647c6.198,2.6732 7.515,9.2626 11.699,13.0461c3.296,2.9435 10.551,5.1727 10.551,8.4833c0,3.3106 -5.373,7.6645 -10.551,8.4833c-4.631,0.7228 -8.869,-3.7581 -13.449,-3.3303c-2.309,0.1898 -1.367,3.4694 -3.5,4.5176c-2.162,1.4019 -5.427,2.3915 -8.5,2.3294c-6.368,-0.1299 -11.766,-0.648 -16.5,-2.8235c-3.895,-1.7894 -6.224,-4.7315 -6.75,-7.7294c-1.043,-5.9351 -2.543,-12.6473 1,-18c3.241,-4.0659 10.827,-6.36 17,-6.9883z" fill="url(#color-13)" stroke="none" stroke-width="0.86553" stroke-linecap="round"/><path d="M257.4571,154.01c3.7408,-0.1062 6.8515,0.5917 9.5358,1.4638c14.3735,5.5259 10.6435,7.6978 8.6421,9.1554c-1.7279,0.8332 -6.3093,-1.9359 -9.6064,-1.7266c-1.6686,0.0959 -0.8129,2.4797 -2.5,2.3421c-3.5357,-0.3261 -5.1457,-3.6057 -9.0357,-3.9523c-3.5872,-0.2982 -6.52,2.5672 -10,2.1774c-3.4829,-0.5577 -6.79,-2.5448 -6.6786,-4.4463c0.095,-1.5319 4.5728,-1.8374 7.1786,-2.8178c4.0078,-0.7078 8.08,-2.0666 12.4642,-2.1957z" fill="url(#color-14)" stroke="none" stroke-width="0.56751" stroke-linecap="round"/><path d="M207.1571,65.3782c3.7408,-0.1463 6.8515,0.8152 9.5358,2.0168c14.3735,7.6134 10.6435,10.6058 8.6421,12.6141c-1.7279,1.148 -6.3093,-2.6672 -9.6064,-2.3788c-1.6686,0.1321 -0.8129,3.4164 -2.5,3.2268c-3.5357,-0.4492 -5.1457,-4.9679 -9.0357,-5.4453c-3.5872,-0.411 -6.52,3.5369 -10,3c-3.4829,-0.7684 -6.79,-3.5062 -6.6786,-6.1261c0.095,-2.1106 4.5728,-2.5316 7.1786,-3.8823c4.0078,-0.9752 8.08,-2.8473 12.4642,-3.0252z" fill="url(#color-15)" stroke="none" stroke-width="0.61823" stroke-linecap="round"/><path d="M218.01029,137.43267c0,7.99345 -6.89185,14.47537 -15.39483,14.47537c-8.50298,0 -15.39428,-6.47917 -15.39428,-14.47537c0,-7.99345 6.89075,-11.70652 15.39428,-11.70652c8.50243,-0.00055 15.39483,3.71362 15.39483,11.70652z" fill="#ffe100" stroke="none" stroke-width="1" stroke-linecap="butt"/><g fill="#231f20" stroke="none" stroke-width="1" stroke-linecap="butt"><path d="M219.73421,137.27805c0,8.8898 -7.6633,16.09695 -17.11766,16.09695c-9.45271,0 -17.11656,-7.20714 -17.11656,-16.09695c0,-7.83443 5.95423,-11.36151 13.83818,-12.09004c0,0 2.49152,-0.31914 5.02706,-0.104c8.63008,0.40168 15.36897,3.86109 15.36897,12.19404zM217.12274,137.51411c0,-6.93422 -5.50633,-10.4459 -12.62763,-10.96093c0,0 -4.51588,0.06328 -4.65289,0.07924c-6.68276,0.73788 -11.72798,4.24241 -11.72798,10.8806c0,7.53069 6.49182,13.63789 14.50288,13.63789c8.01051,0 14.50233,-6.1061 14.50563,-13.63679z"/><path d="M207.54292,130.09402c-1.96328,0.09959 -3.84403,0.14912 -5.81117,0.36977c-1.31344,0.14747 -2.57901,0.15902 -3.55185,-0.83308c-0.2113,-0.21735 0.06493,-0.59207 0.32905,-0.42534c0.65039,0.40773 1.30574,0.57281 1.96493,0.60472c0.04292,0.03522 2.35176,-0.26962 3.40603,-0.60417c1.27217,-0.34666 2.54545,-0.63278 3.81267,-0.21405c0.60582,0.20029 0.48862,1.06858 -0.14967,1.10215z"/></g><path d="M192.40836,137.35509c0,1.8879 1.01796,3.41814 -0.04622,3.41814c-1.06418,0 -1.92587,-1.53024 -1.92587,-3.41814c0,-1.88735 0.86169,-3.41759 1.92587,-3.41759c1.06418,0 0.04622,1.53079 0.04622,3.41759z" fill="#ffffff" stroke="none" stroke-width="1" stroke-linecap="butt"/><g stroke="none" stroke-width="1" stroke-linecap="butt"><path d="M198.76977,121.08151c0.5618,-0.33565 1.12196,-0.6724 1.68321,-1.0086c0.40388,0.62068 0.80996,1.2265 1.13571,1.91596c1.18964,2.51133 0.92772,5.16407 0.8936,7.82012c-0.20634,0.04897 -0.53759,0.08419 -0.74173,0.1205c0.14196,-3.38292 -0.66305,-6.48412 -2.97079,-8.84798z" fill="#99661d"/><path d="M203.8216,128.64852c0,0 -0.12656,1.03226 -0.13811,1.22705c0,0 -2.07498,0.61848 -2.8888,0.30924l-0.02531,-0.88535c0.01651,-1.76905 -0.53374,-3.66905 -0.85949,-4.26387c-0.15572,-0.28393 -0.783,-1.90716 -2.69621,-3.60797c-0.32795,-0.28998 -0.21735,-0.83363 0.13316,-1.04437c0.9943,-0.59647 1.98584,-1.19294 2.97904,-1.78941c0.31914,-0.19094 0.69606,-0.04842 0.91231,0.23936c3.04177,4.04872 2.6764,9.39658 2.58341,9.81532zM202.42617,129.0414c0.06163,-2.4442 0.26962,-4.71562 -0.83748,-7.05252c-0.32575,-0.68946 -0.73183,-1.29528 -1.13571,-1.91596c-0.56125,0.3362 -1.1214,0.67295 -1.68321,1.0086c2.18008,2.23291 3.07038,4.93517 3.04287,8.07929v0.63389l0.61022,-0.07758z" fill="#231f20"/></g><path d="M264.01028,132.93267c0,7.99345 -6.89185,14.47536 -15.39483,14.47536c-8.50298,0 -15.39428,-6.47917 -15.39428,-14.47536c0,-7.99345 6.89075,-11.70652 15.39428,-11.70652c8.50243,-0.00055 15.39483,3.71362 15.39483,11.70652z" fill="#ffe100" stroke="none" stroke-width="1" stroke-linecap="butt"/><g fill="#231f20" stroke="none" stroke-width="1" stroke-linecap="butt"><path d="M265.73421,132.77806c0,8.8898 -7.6633,16.09695 -17.11766,16.09695c-9.45271,0 -17.11656,-7.20714 -17.11656,-16.09695c0,-7.83443 5.95423,-11.36151 13.83818,-12.09005c0,0 2.49152,-0.31914 5.02706,-0.10399c8.63009,0.40168 15.36897,3.86109 15.36897,12.19404zM263.12274,133.01411c0,-6.93422 -5.50633,-10.4459 -12.62764,-10.96093c0,0 -4.51589,0.06328 -4.65289,0.07923c-6.68276,0.73788 -11.72798,4.24241 -11.72798,10.8806c0,7.53069 6.49183,13.63789 14.50288,13.63789c8.0105,0 14.50233,-6.1061 14.50563,-13.63679z"/><path d="M253.54293,125.59402c-1.96329,0.09959 -3.84404,0.14911 -5.81117,0.36977c-1.31344,0.14747 -2.579,0.15902 -3.55184,-0.83308c-0.2113,-0.21735 0.06493,-0.59207 0.32904,-0.42534c0.6504,0.40774 1.30574,0.57281 1.96493,0.60472c0.04292,0.03521 2.35176,-0.26962 3.40604,-0.60417c1.27217,-0.34665 2.54544,-0.63279 3.81266,-0.21404c0.60582,0.20029 0.48862,1.06858 -0.14966,1.10215z"/></g><path d="M238.40836,132.85509c0,1.8879 1.01796,3.41814 -0.04622,3.41814c-1.06418,0 -1.92587,-1.53024 -1.92587,-3.41814c0,-1.88735 0.86169,-3.41759 1.92587,-3.41759c1.06418,0 0.04622,1.53079 0.04622,3.41759z" fill="#ffffff" stroke="none" stroke-width="1" stroke-linecap="butt"/><g stroke="none" stroke-width="1" stroke-linecap="butt"><path d="M244.76978,116.58152c0.5618,-0.33565 1.12195,-0.6724 1.68321,-1.0086c0.40388,0.62068 0.80997,1.2265 1.13571,1.91596c1.18964,2.51133 0.92772,5.16407 0.8936,7.82012c-0.20635,0.04897 -0.5376,0.08419 -0.74174,0.12051c0.14197,-3.38292 -0.66305,-6.48412 -2.97078,-8.84798z" fill="#99661d"/><path d="M249.8216,124.14852c0,0 -0.12656,1.03226 -0.13811,1.22705c0,0 -2.07499,0.61848 -2.8888,0.30924l-0.02531,-0.88535c0.01651,-1.76905 -0.53375,-3.66905 -0.85949,-4.26387c-0.15572,-0.28393 -0.783,-1.90716 -2.69621,-3.60798c-0.32795,-0.28998 -0.21735,-0.83362 0.13316,-1.04437c0.9943,-0.59647 1.98585,-1.19294 2.97904,-1.78941c0.31914,-0.19093 0.69606,-0.04842 0.91231,0.23936c3.04177,4.04872 2.67641,9.39658 2.58342,9.81532zM248.42617,124.5414c0.06163,-2.4442 0.26963,-4.71563 -0.83748,-7.05253c-0.32574,-0.68946 -0.73183,-1.29528 -1.13571,-1.91596c-0.56126,0.3362 -1.1214,0.67296 -1.68321,1.0086c2.18008,2.2329 3.07038,4.93517 3.04287,8.07928v0.63388l0.61023,-0.07758z" fill="#231f20"/></g><path d="M232.01029,94.43267c0,7.99345 -6.89185,14.47537 -15.39483,14.47537c-8.50298,0 -15.39428,-6.47917 -15.39428,-14.47537c0,-7.99345 6.89075,-11.70652 15.39428,-11.70652c8.50243,-0.00055 15.39483,3.71362 15.39483,11.70652z" fill="#ffe100" stroke="none" stroke-width="1" stroke-linecap="butt"/><g fill="#231f20" stroke="none" stroke-width="1" stroke-linecap="butt"><path d="M233.73421,94.27806c0,8.8898 -7.6633,16.09695 -17.11766,16.09695c-9.45271,0 -17.11656,-7.20714 -17.11656,-16.09695c0,-7.83443 5.95423,-11.36151 13.83818,-12.09004c0,0 2.49152,-0.31914 5.02706,-0.104c8.63008,0.40168 15.36897,3.86109 15.36897,12.19404zM231.12273,94.51411c0,-6.93422 -5.50633,-10.4459 -12.62763,-10.96093c0,0 -4.51588,0.06328 -4.6529,0.07923c-6.68276,0.73788 -11.72798,4.24241 -11.72798,10.8806c0,7.53069 6.49183,13.63789 14.50288,13.63789c8.0105,0 14.50233,-6.1061 14.50563,-13.63679z"/><path d="M221.54292,87.09402c-1.96328,0.09959 -3.84403,0.14911 -5.81117,0.36977c-1.31344,0.14746 -2.579,0.15902 -3.55184,-0.83308c-0.2113,-0.21735 0.06492,-0.59206 0.32904,-0.42534c0.6504,0.40774 1.30574,0.5728 1.96494,0.60472c0.04292,0.03521 2.35176,-0.26962 3.40603,-0.60417c1.27218,-0.34665 2.54545,-0.63279 3.81267,-0.21404c0.60582,0.20029 0.48862,1.06858 -0.14967,1.10215z"/></g><path d="M206.40836,94.35509c0,1.8879 1.01796,3.41814 -0.04622,3.41814c-1.06418,0 -1.92587,-1.53024 -1.92587,-3.41814c0,-1.88735 0.86169,-3.41759 1.92587,-3.41759c1.06418,0 0.04622,1.53079 0.04622,3.41759z" fill="#ffffff" stroke="none" stroke-width="1" stroke-linecap="butt"/><g stroke="none" stroke-width="1" stroke-linecap="butt"><path d="M212.76978,78.08152c0.5618,-0.33565 1.12195,-0.6724 1.6832,-1.00861c0.40388,0.62068 0.80997,1.2265 1.13572,1.91596c1.18964,2.51133 0.92772,5.16407 0.8936,7.82012c-0.20634,0.04897 -0.5376,0.08419 -0.74174,0.12051c0.14196,-3.38292 -0.66304,-6.48412 -2.97078,-8.84798z" fill="#99661d"/><path d="M217.8216,85.64852c0,0 -0.12656,1.03226 -0.13811,1.22705c0,0 -2.07498,0.61848 -2.8888,0.30924l-0.02531,-0.88535c0.0165,-1.76905 -0.53374,-3.66905 -0.85949,-4.26387c-0.15572,-0.28393 -0.783,-1.90716 -2.69621,-3.60797c-0.32795,-0.28998 -0.21735,-0.83362 0.13316,-1.04437c0.9943,-0.59647 1.98584,-1.19294 2.97904,-1.78941c0.31914,-0.19093 0.69607,-0.04842 0.91231,0.23936c3.04177,4.04873 2.6764,9.39658 2.58342,9.81532zM216.42617,86.0414c0.06163,-2.4442 0.26962,-4.71562 -0.83748,-7.05252c-0.32575,-0.68946 -0.73184,-1.29528 -1.13572,-1.91596c-0.56125,0.3362 -1.1214,0.67296 -1.6832,1.00861c2.18008,2.23291 3.07038,4.93517 3.04287,8.07928v0.63389l0.61022,-0.07758z" fill="#231f20"/></g><path d="M282.01029,91.43268c0,7.99345 -6.89185,14.47536 -15.39483,14.47536c-8.50298,0 -15.39428,-6.47916 -15.39428,-14.47536c0,-7.99345 6.89075,-11.70652 15.39428,-11.70652c8.50243,-0.00055 15.39483,3.71362 15.39483,11.70652z" fill="#ffe100" stroke="none" stroke-width="1" stroke-linecap="butt"/><g fill="#231f20" stroke="none" stroke-width="1" stroke-linecap="butt"><path d="M283.73421,91.27806c0,8.8898 -7.6633,16.09695 -17.11765,16.09695c-9.4527,0 -17.11656,-7.20715 -17.11656,-16.09695c0,-7.83442 5.95423,-11.36151 13.83818,-12.09004c0,0 2.49153,-0.31914 5.02706,-0.104c8.63009,0.40168 15.36897,3.86109 15.36897,12.19404zM281.12274,91.51411c0,-6.93422 -5.50633,-10.44591 -12.62764,-10.96094c0,0 -4.51588,0.06328 -4.65289,0.07923c-6.68276,0.73788 -11.72798,4.24241 -11.72798,10.8806c0,7.53069 6.49182,13.63789 14.50288,13.63789c8.0105,0 14.50233,-6.1061 14.50563,-13.63679z"/><path d="M271.54292,84.09402c-1.96328,0.09959 -3.84403,0.14911 -5.81117,0.36977c-1.31344,0.14746 -2.57901,0.15902 -3.55185,-0.83308c-0.2113,-0.21735 0.06492,-0.59206 0.32905,-0.42534c0.6504,0.40774 1.30574,0.57281 1.96493,0.60472c0.04292,0.03521 2.35176,-0.26962 3.40603,-0.60417c1.27218,-0.34665 2.54545,-0.63279 3.81267,-0.21405c0.60582,0.20029 0.48862,1.06858 -0.14967,1.10215z"/></g><path d="M256.40836,91.35509c0,1.8879 1.01796,3.41813 -0.04622,3.41813c-1.06418,0 -1.92587,-1.53023 -1.92587,-3.41813c0,-1.88735 0.86169,-3.41759 1.92587,-3.41759c1.06418,0 0.04622,1.53079 0.04622,3.41759z" fill="#ffffff" stroke="none" stroke-width="1" stroke-linecap="butt"/><g stroke="none" stroke-width="1" stroke-linecap="butt"><path d="M262.76978,75.08152c0.5618,-0.33565 1.12195,-0.6724 1.6832,-1.00861c0.40388,0.62068 0.80997,1.2265 1.13572,1.91596c1.18964,2.51133 0.92771,5.16407 0.8936,7.82012c-0.20635,0.04897 -0.5376,0.08419 -0.74174,0.12051c0.14197,-3.38292 -0.66305,-6.48412 -2.97078,-8.84798z" fill="#99661d"/><path d="M267.8216,82.64852c0,0 -0.12656,1.03226 -0.13811,1.22705c0,0 -2.07499,0.61848 -2.8888,0.30924l-0.02531,-0.88535c0.0165,-1.76905 -0.53374,-3.66904 -0.85949,-4.26386c-0.15572,-0.28393 -0.783,-1.90716 -2.69621,-3.60797c-0.32795,-0.28998 -0.21735,-0.83362 0.13316,-1.04437c0.9943,-0.59647 1.98585,-1.19294 2.97904,-1.78941c0.31914,-0.19093 0.69606,-0.04842 0.91231,0.23936c3.04177,4.04873 2.67641,9.39658 2.58342,9.81532zM266.42617,83.04139c0.06163,-2.4442 0.26963,-4.71562 -0.83747,-7.05252c-0.32575,-0.68946 -0.73183,-1.29528 -1.13572,-1.91596c-0.56126,0.3362 -1.1214,0.67296 -1.6832,1.00861c2.18008,2.23291 3.07038,4.93517 3.04287,8.07928v0.63389l0.61023,-0.07758z" fill="#231f20"/></g><path d="M292.69676,137.78349c0,6.56405 -5.65944,11.88686 -12.64191,11.88686c-6.98247,0 -12.64146,-5.32055 -12.64146,-11.88686c0,-6.56405 5.65854,-9.61315 12.64146,-9.61315c6.98201,-0.00045 12.64191,3.04955 12.64191,9.61315z" fill="#ffe100" stroke="none" stroke-width="1" stroke-linecap="butt"/><g fill="#231f20" stroke="none" stroke-width="1" stroke-linecap="butt"><path d="M294.11241,137.65652c0,7.30012 -6.29294,13.21847 -14.05666,13.21847c-7.76236,0 -14.05575,-5.91835 -14.05575,-13.21847c0,-6.43347 4.88949,-9.32984 11.36362,-9.92809c0,0 2.04598,-0.26207 4.12812,-0.0854c7.08684,0.32985 12.62067,3.17064 12.62067,10.01349zM291.96792,137.85037c0,-5.69424 -4.52168,-8.57795 -10.36955,-9.00089c0,0 -3.70835,0.05196 -3.82086,0.06507c-5.48774,0.60593 -9.63077,3.48378 -9.63077,8.93492c0,6.18404 5.33095,11.19915 11.90946,11.19915c6.57806,0 11.90901,-5.0142 11.91172,-11.19824z"/><path d="M284.10118,131.75715c-1.61221,0.08179 -3.15664,0.12245 -4.77201,0.30364c-1.07857,0.1211 -2.11783,0.13059 -2.9167,-0.6841c-0.17351,-0.17848 0.05332,-0.48619 0.27021,-0.34928c0.53409,0.33482 1.07224,0.47038 1.61356,0.49659c0.03524,0.02892 1.93121,-0.22141 2.79696,-0.49613c1.04468,-0.28467 2.09027,-0.51963 3.13088,-0.17577c0.49749,0.16447 0.40124,0.8775 -0.1229,0.90506z"/></g><path d="M271.673,137.71978c0,1.5503 0.83593,2.8069 -0.03796,2.8069c-0.87388,0 -1.58148,-1.2566 -1.58148,-2.8069c0,-1.54985 0.7076,-2.80645 1.58148,-2.80645c0.87388,0 0.03796,1.25705 0.03796,2.80645z" fill="#ffffff" stroke="none" stroke-width="1" stroke-linecap="butt"/><g stroke="none" stroke-width="1" stroke-linecap="butt"><path d="M276.89686,124.35627c0.46134,-0.27563 0.92133,-0.55216 1.38221,-0.82824c0.33166,0.50969 0.66513,1.00718 0.93262,1.57335c0.9769,2.06225 0.76182,4.24063 0.73381,6.42172c-0.16944,0.04021 -0.44146,0.06913 -0.6091,0.09896c0.11658,-2.77798 -0.54448,-5.32462 -2.43955,-7.26578z" fill="#99661d"/><path d="M281.04531,130.57013c0,0 -0.10393,0.84767 -0.11341,1.00763c0,0 -1.70393,0.50788 -2.37222,0.25394l-0.02079,-0.72703c0.01356,-1.4527 -0.4383,-3.01295 -0.70579,-3.5014c-0.12787,-0.23316 -0.64299,-1.56612 -2.21407,-2.96279c-0.2693,-0.23813 -0.17848,-0.68456 0.10935,-0.85761c0.8165,-0.48981 1.63073,-0.97961 2.44633,-1.46942c0.26207,-0.15679 0.57159,-0.03976 0.74917,0.19656c2.49784,3.32473 2.19781,7.71627 2.12144,8.06013zM279.89941,130.89275c0.05061,-2.00713 0.22141,-3.87237 -0.68772,-5.79138c-0.2675,-0.56617 -0.60096,-1.06366 -0.93262,-1.57335c-0.46089,0.27608 -0.92087,0.55261 -1.38221,0.82824c1.79024,1.83361 2.52133,4.05266 2.49874,6.63454v0.52053l0.5011,-0.06371z" fill="#231f20"/></g><path d="M251.69676,70.78349c0,6.56405 -5.65945,11.88687 -12.64191,11.88687c-6.98246,0 -12.64146,-5.32056 -12.64146,-11.88686c0,-6.56405 5.65854,-9.61315 12.64146,-9.61315c6.98201,-0.00045 12.64191,3.04955 12.64191,9.61315z" fill="#ffe100" stroke="none" stroke-width="1" stroke-linecap="butt"/><g fill="#231f20" stroke="none" stroke-width="1" stroke-linecap="butt"><path d="M253.11241,70.65653c0,7.30012 -6.29294,13.21847 -14.05666,13.21847c-7.76236,0 -14.05575,-5.91836 -14.05575,-13.21847c0,-6.43347 4.88949,-9.32984 11.36362,-9.92809c0,0 2.04598,-0.26207 4.12812,-0.0854c7.08685,0.32985 12.62067,3.17064 12.62067,10.01349zM250.96792,70.85037c0,-5.69423 -4.52168,-8.57795 -10.36954,-9.00089c0,0 -3.70835,0.05196 -3.82086,0.06507c-5.48774,0.60593 -9.63076,3.48378 -9.63076,8.93492c0,6.18404 5.33094,11.19914 11.90945,11.19914c6.57806,0 11.90901,-5.0142 11.91171,-11.19824z"/><path d="M243.10119,64.75715c-1.61221,0.08178 -3.15664,0.12245 -4.77201,0.30364c-1.07857,0.12109 -2.11783,0.13059 -2.9167,-0.6841c-0.17351,-0.17848 0.05332,-0.48619 0.27021,-0.34928c0.53409,0.33482 1.07225,0.47038 1.61356,0.49659c0.03524,0.02892 1.93121,-0.22141 2.79696,-0.49614c1.04468,-0.28466 2.09026,-0.51963 3.13088,-0.17577c0.49749,0.16448 0.40125,0.8775 -0.1229,0.90506z"/></g><path d="M230.673,70.71978c0,1.55031 0.83592,2.80691 -0.03796,2.80691c-0.87388,0 -1.58148,-1.2566 -1.58148,-2.80691c0,-1.54985 0.70761,-2.80645 1.58148,-2.80645c0.87388,0 0.03796,1.25705 0.03796,2.80645z" fill="#ffffff" stroke="none" stroke-width="1" stroke-linecap="butt"/><g stroke="none" stroke-width="1" stroke-linecap="butt"><path d="M235.89686,57.35627c0.46134,-0.27563 0.92132,-0.55217 1.38221,-0.82825c0.33166,0.50969 0.66513,1.00718 0.93263,1.57335c0.97691,2.06225 0.76182,4.24062 0.7338,6.42172c-0.16944,0.04021 -0.44146,0.06913 -0.60909,0.09895c0.11658,-2.77799 -0.54448,-5.32462 -2.43955,-7.26577z" fill="#99661d"/><path d="M240.04531,63.57013c0,0 -0.10392,0.84768 -0.11341,1.00763c0,0 -1.70394,0.50788 -2.37223,0.25394l-0.02078,-0.72703c0.01355,-1.45271 -0.43829,-3.01295 -0.70579,-3.5014c-0.12788,-0.23316 -0.64299,-1.56612 -2.21408,-2.96279c-0.2693,-0.23812 -0.17848,-0.68455 0.10935,-0.85761c0.81649,-0.48981 1.63074,-0.97962 2.44633,-1.46942c0.26207,-0.1568 0.57159,-0.03977 0.74917,0.19656c2.49783,3.32472 2.19781,7.71627 2.12144,8.06013zM238.89942,63.89275c0.05061,-2.00713 0.22141,-3.87237 -0.68772,-5.79138c-0.26749,-0.56617 -0.60097,-1.06366 -0.93263,-1.57335c-0.46089,0.27608 -0.92087,0.55261 -1.38221,0.82825c1.79023,1.83361 2.52134,4.05266 2.49874,6.63454v0.52053l0.5011,-0.06372z" fill="#231f20"/></g></g></g></svg>